<?xml version="1.0" encoding="utf-8"?>
<!-- Generator: Adobe Illustrator 21.0.0, SVG Export Plug-In . SVG Version: 6.00 Build 0)  -->
<svg version="1.1" id="Capa_1" xmlns="http://www.w3.org/2000/svg" xmlns:xlink="http://www.w3.org/1999/xlink" x="0px" y="0px"
	 viewBox="0 0 480 480" style="enable-background:new 0 0 480 480;" xml:space="preserve">
<style type="text/css">
	.st0{fill:#FFFFFF;}
</style>
<g>
	<g>
		<path class="st0" d="M472,388h-50.8c31.1-24.6,36.2-69.8,11.6-100.8c-16.1-20.3-41.8-30.3-67.4-26.3l-27.8-124.9
			c17.2-8.4,26-27.8,21-46.3l-2.1-7.7c-1.1-4.3-5.5-6.8-9.8-5.7l-54.1,14.5c-4.3,1-6.9,5.3-5.9,9.6c1,4.3,5.3,6.9,9.6,5.9
			c0.1,0,0.3-0.1,0.4-0.1l46.4-12.4c3.4,12.8-4.2,26-17,29.4c0,0,0,0,0,0c-4.1,1.1-6.7,5.3-5.7,9.5l5.3,24
			c-24.2,32.7-78.4,53.4-119.8,55.2L194.2,164H216c4.4,0,8-3.6,8-8s-3.6-8-8-8h-56c-4.4,0-8,3.6-8,8s3.6,8,8,8h17.7l13.3,54
			l-48.7,53.2c-33.6-21.2-78-11.1-99.2,22.6c-19.4,30.9-12.7,71.4,15.7,94.3H8c-4.4,0-8,3.6-8,8s3.6,8,8,8h464c4.4,0,8-3.6,8-8
			S476.4,388,472,388z M330.1,176.2l4.6,20.8C315.9,239.8,286.4,277,249,305c-0.3-0.2-0.6-0.5-1-0.7c-6.1-3.5-13.3-4.9-20.3-3.9
			l-17.9-72.8C251.1,225,301.1,206.5,330.1,176.2z M245.9,340c-4.4,7.7-14.2,10.3-21.9,5.9s-10.3-14.2-5.9-21.9
			c2.1-3.7,5.6-6.4,9.7-7.5c1.3-0.4,2.7-0.5,4.1-0.5c7.2,0,13.6,4.9,15.4,11.9l0,0C248.6,332,248,336.3,245.9,340z M195.6,236.7
			l17.2,69.8c-6,4.4-10.2,10.9-11.7,18.1l-25.3,2.3c-1.2-17.3-8.6-33.6-20.9-45.8L195.6,236.7z M144,292.9
			c9.3,9.5,14.9,22.1,15.8,35.4l-31.9,2.9c-0.2-5.4-2.1-10.5-5.6-14.6L144,292.9z M91.2,386.2C66,380.3,48.1,357.9,48,332
			c0-30.9,25-56,55.9-56c9.6,0,19,2.4,27.4,7.1l-23.2,25.3c-13-2.4-25.5,6.3-27.9,19.4s6.3,25.5,19.4,27.9
			c8.3,1.5,16.7-1.5,22.3-7.8l36.7-3.3C151.4,374.6,121.3,393.3,91.2,386.2z M112,332c0,4.4-3.6,8-8,8s-8-3.6-8-8s3.6-8,8-8
			S112,327.6,112,332z M149.2,388c13.9-11.2,23.2-27.3,25.9-45l26.2-2.4c3.8,13.8,16.4,23.3,30.7,23.4c2.8,0,5.6-0.4,8.3-1.1
			c16.9-4.4,27.1-21.6,22.8-38.6c-0.7-2.7-1.7-5.3-3.1-7.7c33.2-25.4,60.6-57.5,80.4-94.3l9.5,42.6c-27.6,10.8-45.9,37.4-45.9,67
			c0,21.8,9.9,42.4,26.8,56L149.2,388L149.2,388z M376.2,388.2c-31,0.1-56.2-25-56.2-56c0-22.3,13.1-42.4,33.4-51.4l7.3,32.8
			c-10.1,8.5-11.3,23.6-2.8,33.6s23.6,11.3,33.6,2.8s11.3-23.6,2.8-33.6c-4.6-5.4-11.3-8.5-18.4-8.5h-0.1l-7-31.5
			c2.4-0.3,4.8-0.5,7.1-0.5c31-0.1,56.2,25,56.2,56C432.3,363,407.2,388.2,376.2,388.2z M368,332c0-4.4,3.6-8,8-8s8,3.6,8,8
			s-3.6,8-8,8S368,336.4,368,332z"/>
	</g>
</g>
<g>
	<g>
		<path class="st0" d="M449.1,164.1c-0.4-0.1-0.8-0.1-1.1-0.1h-80c-4.4,0-8,3.6-8,8c0,0.7,0.1,1.5,0.3,2.2l16,56
			c1,3.4,4.1,5.8,7.7,5.8h56c4,0,7.4-2.9,7.9-6.9l8-56C456.5,168.8,453.5,164.7,449.1,164.1z M433.1,220h-43l-11.4-40h60.2
			L433.1,220z"/>
	</g>
</g>
<g>
	<g>
		<path class="st0" d="M152,188H56c-4.4,0-8,3.6-8,8v32c0,4.4,3.6,8,8,8h96c4.4,0,8-3.6,8-8v-32C160,191.6,156.4,188,152,188z
			 M144,220H64v-16h80V220z"/>
	</g>
</g>
</svg>
