<?xml version="1.0" encoding="utf-8"?>
<!-- Generator: Adobe Illustrator 21.0.0, SVG Export Plug-In . SVG Version: 6.00 Build 0)  -->
<svg version="1.1" id="Capa_1" xmlns="http://www.w3.org/2000/svg" xmlns:xlink="http://www.w3.org/1999/xlink" x="0px" y="0px"
	 viewBox="0 0 480 480" style="enable-background:new 0 0 480 480;" xml:space="preserve">
<style type="text/css">
	.st0{fill:#FFFFFF;}
</style>
<g>
	<g>
		<path class="st0" d="M472,328h-32v-88c0-2.1-0.8-4.2-2.3-5.7L411.3,208l66.3-66.3c2.9-2.9,3.1-7.5,0.6-10.7l-32-40
			c-1.4-1.7-3.4-2.8-5.6-3c-2.1-0.1-4.4,0.6-6,2l-75.7,68.1l-36.2-20.7c-10.9-6.2-23.2-9.5-35.7-9.5h-1.8
			c16.3-13.2,26.8-33.4,26.8-56c0-39.7-32.3-72-72-72s-72,32.3-72,72c0,22.6,10.5,42.8,26.8,56H193c-12.5,0-24.9,3.3-35.7,9.5
			l-36.2,20.7L45.4,90.1c-1.6-1.5-3.9-2.2-6-2c-2.2,0.2-4.2,1.3-5.6,3l-32,40c-2.5,3.2-2.3,7.8,0.6,10.7L72.7,212l-22.3,22.3
			c-1.5,1.5-2.3,3.5-2.3,5.7v88H8c-4.4,0-8,3.6-8,8v48c0,13.2,10.8,24,24,24v64c0,4.4,3.6,8,8,8h416c4.4,0,8-3.6,8-8v-64
			c13.2,0,24-10.8,24-24v-48C480,331.6,476.4,328,472,328z M424,243.3V328h-64v-17.5c9.3-3.3,16-12.1,16-22.5v-16
			c0-13.2-10.8-24-24-24s-24,10.8-24,24v16c0,10.4,6.7,19.2,16,22.5V328h-24V215.5l10.3,7.3c21.4,15.3,50.1,13.5,69.5-3.8L424,243.3
			z M352,296c-4.4,0-8-3.6-8-8v-16c0-4.4,3.6-8,8-8s8,3.6,8,8v16C360,292.4,356.4,296,352,296z M184,72c0-30.9,25.1-56,56-56
			s56,25.1,56,56s-25.1,56-56,56S184,102.9,184,72z M18.7,135.4L41,107.6l73.7,66.3c2.6,2.3,6.3,2.7,9.3,1l41.2-23.6
			c8.4-4.8,18.1-7.4,27.8-7.4h94c9.7,0,19.3,2.6,27.8,7.4l41.2,23.6c3,1.7,6.8,1.3,9.3-1l73.7-66.3l22.2,27.8L400,196.7l-10.3-10.3
			l-11.3,11.3l10.1,10.1c-13.9,11.7-33.9,12.8-48.9,2.1l-22.9-16.4c-2.4-1.8-5.6-2-8.3-0.6c-2.7,1.4-4.3,4.1-4.3,7.1v128h-32v-65.5
			c9.3-3.3,16-12.1,16-22.5v-8c0-13.2-10.8-24-24-24s-24,10.8-24,24v8c0,10.4,6.7,19.2,16,22.5V328h-56v-53.6l14.7-22l-13.3-8.9
			l-16,24c-0.9,1.3-1.3,2.9-1.3,4.4v56h-8V200c0-3-1.7-5.7-4.3-7.1c-2.7-1.4-5.9-1.1-8.3,0.6l-22.9,16.4
			c-13.4,9.6-30.8,9.7-44.3,1.3l13.5-13.5l-11.3-11.3L84,200.7L18.7,135.4z M264,248c-4.4,0-8-3.6-8-8v-8c0-4.4,3.6-8,8-8s8,3.6,8,8
			v8C272,244.4,268.4,248,264,248z M64,243.3l20.6-20.6c19.2,13.9,45.3,14.3,65.2,0.1l10.3-7.3V328h-48v-44.7l29.7-29.7l-11.3-11.3
			l-32,32c-1.5,1.5-2.3,3.5-2.3,5.7v48H64V243.3z M440,464H40v-56h400V464z M464,384c0,4.4-3.6,8-8,8h-8H32h-8c-4.4,0-8-3.6-8-8v-40
			h152h144h152V384z"/>
	</g>
</g>
<g>
	<g>
		<rect x="200" y="360" class="st0" width="16" height="16"/>
	</g>
</g>
<g>
	<g>
		<rect x="232" y="360" class="st0" width="16" height="16"/>
	</g>
</g>
<g>
	<g>
		<rect x="264" y="360" class="st0" width="16" height="16"/>
	</g>
</g>
<g>
	<g>
		<rect x="232" y="160" class="st0" width="16" height="16"/>
	</g>
</g>
<g>
	<g>
		<path class="st0" d="M456,0h-56c-13.2,0-24,10.8-24,24v12.7l-29.7,29.7c-2.3,2.3-3,5.7-1.7,8.7c1.2,3,4.2,4.9,7.4,4.9h104
			c13.2,0,24-10.8,24-24V24C480,10.8,469.2,0,456,0z M464,56c0,4.4-3.6,8-8,8h-84.7l18.3-18.3c1.5-1.5,2.3-3.5,2.3-5.7V24
			c0-4.4,3.6-8,8-8h56c4.4,0,8,3.6,8,8V56z"/>
	</g>
</g>
<g>
	<g>
		<rect x="408" y="32" class="st0" width="40" height="16"/>
	</g>
</g>
</svg>
