<?xml version="1.0" encoding="utf-8"?>
<!-- Generator: Adobe Illustrator 21.0.0, SVG Export Plug-In . SVG Version: 6.00 Build 0)  -->
<svg version="1.1" id="Capa_1" xmlns="http://www.w3.org/2000/svg" xmlns:xlink="http://www.w3.org/1999/xlink" x="0px" y="0px"
	 viewBox="0 0 47.2 47.2" style="enable-background:new 0 0 47.2 47.2;" xml:space="preserve">
<style type="text/css">
	.st0{fill:#FFFFFF;}
</style>
<g>
	<g>
		<path class="st0" d="M27.1,16.6c-0.3,0-0.5,0.1-0.7,0.4l-6.9,12.6c-0.1,0.2-0.1,0.5,0,0.7c0.1,0.2,0.4,0.4,0.6,0.4
			c0.3,0,0.5-0.1,0.6-0.4l6.9-12.6c0.1-0.2,0.1-0.5,0-0.7C27.6,16.7,27.3,16.6,27.1,16.6z"/>
		<path class="st0" d="M22.5,20.5c0-2.3-1.3-4-3.6-4c-2.3,0-3.8,1.8-3.8,4.2c0,2.5,1.6,4.1,3.7,4.1C20.7,24.8,22.5,23.3,22.5,20.5z
			 M18.8,23.1c-0.9,0-1.4-1-1.4-2.4c0-1.4,0.4-2.4,1.4-2.4c1,0,1.3,1.1,1.3,2.4C20.1,22.2,19.7,23.1,18.8,23.1z"/>
		<path class="st0" d="M28.5,22.1c-2.3,0-3.8,1.8-3.8,4.2c0,2.5,1.6,4.1,3.7,4.1c2,0,3.7-1.5,3.7-4.3C32.2,23.8,30.9,22.1,28.5,22.1
			z M28.5,28.7c-0.9,0-1.4-1-1.4-2.4c0-1.4,0.4-2.4,1.4-2.4c1,0,1.3,1.1,1.3,2.4C29.8,27.8,29.4,28.7,28.5,28.7z"/>
		<path class="st0" d="M43.8,17.1c-0.7-2.3,0.3-5.4-1.1-7.3c-1.4-1.9-4.7-1.9-6.6-3.3c-1.9-1.4-2.9-4.5-5.2-5.3
			c-2.2-0.7-4.9,1.2-7.3,1.2c-2.4,0-5.1-1.9-7.3-1.2c-2.3,0.7-3.3,3.9-5.2,5.3C9.2,7.8,5.9,7.8,4.5,9.7c-1.4,1.9-0.4,5.1-1.1,7.3
			C2.7,19.2,0,21.2,0,23.6s2.7,4.4,3.4,6.6c0.7,2.3-0.3,5.4,1.1,7.3c1.4,1.9,4.7,1.9,6.6,3.3c1.9,1.4,2.9,4.5,5.2,5.3
			c2.2,0.7,4.9-1.2,7.3-1.2s5.1,1.9,7.3,1.2c2.3-0.7,3.3-3.9,5.2-5.3c1.9-1.4,5.2-1.4,6.6-3.3c1.4-1.9,0.4-5.1,1.1-7.3
			c0.7-2.2,3.4-4.1,3.4-6.6C47.2,21.2,44.5,19.2,43.8,17.1z M23.6,40.3C14.4,40.3,7,32.8,7,23.6C7,14.4,14.4,7,23.6,7
			c9.2,0,16.6,7.5,16.6,16.6C40.3,32.8,32.8,40.3,23.6,40.3z"/>
		<path class="st0" d="M23.6,9.1c-8,0-14.5,6.5-14.5,14.5c0,8,6.5,14.5,14.5,14.5s14.5-6.5,14.5-14.5C38.1,15.6,31.6,9.1,23.6,9.1z
			 M23.6,35.8c-6.7,0-12.1-5.5-12.1-12.1c0-6.7,5.5-12.1,12.1-12.1s12.1,5.4,12.1,12.1C35.8,30.3,30.3,35.8,23.6,35.8z"/>
	</g>
</g>
</svg>
